<?xml version="1.0" encoding="iso-8859-1"?>
<!-- Generator: Adobe Illustrator 19.0.0, SVG Export Plug-In . SVG Version: 6.00 Build 0)  -->
<svg xmlns="http://www.w3.org/2000/svg" xmlns:xlink="http://www.w3.org/1999/xlink" version="1.1" id="Layer_1" x="0px" y="0px" viewBox="0 0 511.999 511.999" style="enable-background:new 0 0 511.999 511.999;" xml:space="preserve">
<g>
	<path style="fill:#66BB6A;" d="M171.392,222.484c25.961,13.726,56.599,10.945,81.474-4.519   c-1.228-29.265-16.182-56.149-42.143-69.875s-56.598-10.945-81.474,4.519C130.477,181.874,145.431,208.758,171.392,222.484z"/>
	<path style="fill:#66BB6A;" d="M334.341,118.395c-25.961,13.726-56.599,10.945-81.474-4.519   c1.228-29.265,16.182-56.149,42.143-69.875c25.961-13.726,56.598-10.945,81.474,4.519   C375.256,77.786,360.302,104.669,334.341,118.395z"/>
	<path style="fill:#66BB6A;" d="M334.341,326.573c-25.961,13.726-56.599,10.945-81.474-4.519   c1.228-29.265,16.182-56.149,42.143-69.875c25.961-13.726,56.598-10.945,81.474,4.519   C375.256,285.962,360.302,312.847,334.341,326.573z"/>
</g>
<g>
	<circle style="fill:#B8703F;" cx="168.65" cy="287.462" r="28.455"/>
	<circle style="fill:#B8703F;" cx="111.397" cy="367.969" r="23.548"/>
	<circle style="fill:#B8703F;" cx="400.6" cy="378.916" r="23.548"/>
	<path style="fill:#B8703F;" d="M361.318,436.897c-9.105,0-17.748,1.952-25.559,5.436c-7.511-38.941-41.759-68.36-82.893-68.36   c-33.099,0-61.733,19.055-75.577,46.783c-7.992-3.683-16.881-5.751-26.258-5.751c-34.701,0-62.83,28.13-62.83,62.83   c0,9.518,2.127,18.534,5.914,26.618h329.838c0.117-1.562,0.195-3.134,0.195-4.726C424.148,465.026,396.018,436.897,361.318,436.897   z"/>
</g>
<g style="opacity:0.1;">
	<path d="M168.624,417.528c-5.583-1.632-11.481-2.524-17.591-2.524c-34.701,0-62.83,28.13-62.83,62.83   c0,9.518,2.127,18.534,5.914,26.619h35.217c-3.787-8.084-5.914-17.101-5.914-26.619   C123.418,449.256,142.506,425.149,168.624,417.528z"/>
</g>
<path d="M214.25,141.418c-27.508-14.544-60.774-12.757-88.986,4.78c-2.311,1.437-3.67,4.007-3.556,6.725  c1.072,25.557,12.027,49.294,30.055,65.126c3.131,2.75,7.901,2.441,10.65-0.691c2.75-3.131,2.441-7.9-0.691-10.65  c-13.904-12.21-22.739-30.228-24.628-49.957c22.715-12.539,48.618-13.349,70.1-1.991c18.861,9.971,31.887,28.039,36.43,49.781  l-68.213-36.063c-3.683-1.948-8.25-0.54-10.199,3.144c-1.948,3.685-0.54,8.251,3.144,10.199l68.174,36.044  c-16.593,6.827-34.512,7.825-50.774,2.533c-3.962-1.291-8.222,0.876-9.513,4.84c-1.29,3.963,0.877,8.222,4.84,9.512  c8.492,2.765,17.338,4.127,26.247,4.127c12.818,0,25.767-2.825,37.985-8.347v136.212c-29.718,2.397-56.153,18.852-71.438,44.522  c-7.332-2.529-14.989-3.805-22.85-3.805c-38.806,0-70.377,31.571-70.377,70.377c0,10.4,2.23,20.433,6.628,29.82  c1.242,2.651,3.906,4.345,6.834,4.345c0,0,329.445,0,329.837,0c6.905,0,7.743-6.972,7.743-12.273  c0-38.806-31.572-70.377-70.377-70.377c-6.929,0-13.707,0.996-20.248,2.968c-3.2-10.777-8.402-20.996-15.284-29.944  c-2.539-3.303-7.277-3.922-10.583-1.381c-3.302,2.541-3.92,7.279-1.38,10.583c7.262,9.441,12.285,20.571,14.526,32.185  c0.906,4.694,6.109,7.415,10.485,5.463c7.112-3.173,14.678-4.781,22.485-4.781c29.538,0,53.74,23.285,55.213,52.464H99.132  c-2.248-6.092-3.385-12.487-3.385-19.072c0-30.484,24.8-55.284,55.284-55.284c8.043,0,15.814,1.702,23.099,5.059  c3.702,1.706,8.09,0.164,9.91-3.482c12.992-26.022,38.977-42.275,67.961-42.593c0.585-0.006,1.141,0.066,1.727,0  c14.066,0.157,27.77,4.138,39.687,11.556c3.537,2.202,8.193,1.12,10.395-2.418c2.202-3.539,1.12-8.193-2.418-10.395  c-12.417-7.73-26.453-12.338-40.981-13.53v-32.126c12.135,5.489,25.066,8.355,38.001,8.355c13.965,0,27.239-3.274,39.454-9.732  c27.509-14.544,44.763-43.041,46.156-76.23c0.114-2.719-1.244-5.289-3.555-6.725c-15.274-9.495-32.402-14.513-49.533-14.513  c-13.965,0-27.239,3.274-39.454,9.732c-12.745,6.739-23.284,16.477-31.069,28.283V126.454c12.27,5.568,25.168,8.38,37.911,8.379  c13.689,0,27.198-3.238,39.546-9.766c27.508-14.544,44.762-43.04,46.155-76.23c0.114-2.719-1.244-5.289-3.555-6.725  c-19.645-12.212-42.287-16.945-63.766-13.325c-4.109,0.692-6.879,4.586-6.186,8.696s4.586,6.879,8.697,6.187  c16.468-2.776,33.859,0.418,49.43,8.999c-2.428,25.835-16.344,47.697-37.828,59.055c-18.859,9.971-41.126,10.561-61.651,2.074  l68.212-36.063c3.684-1.948,5.092-6.514,3.144-10.199c-1.949-3.685-6.512-5.093-10.2-3.144l-68.203,36.059  c3.981-19.117,14.494-35.418,29.99-45.913c3.451-2.337,4.353-7.029,2.016-10.481c-2.336-3.45-7.028-4.353-10.481-2.016  c-9.303,6.302-17.123,14.296-23.229,23.542V7.547c0-4.168-3.378-7.547-7.547-7.547s-7.547,3.379-7.547,7.547v162.156  C237.535,157.895,226.996,148.157,214.25,141.418z M298.537,258.85c10.018-5.297,20.918-7.982,32.399-7.982  c12.899,0,25.846,3.437,37.706,9.978c-2.428,25.834-16.344,47.697-37.829,59.056c-10.018,5.297-20.918,7.982-32.399,7.982  c-9.888,0-19.803-2.028-29.236-5.916l68.197-36.055c3.684-1.949,5.092-6.514,3.144-10.199c-1.949-3.684-6.512-5.092-10.2-3.144  l-68.212,36.063C266.65,286.889,279.675,268.822,298.537,258.85z"/>
<path d="M204.66,287.468c0-19.853-16.153-36.006-36.006-36.006s-36.006,16.153-36.006,36.006s16.153,36.006,36.006,36.006  S204.66,307.321,204.66,287.468z M147.741,287.468c0-11.531,9.382-20.913,20.913-20.913s20.913,9.382,20.913,20.913  s-9.382,20.913-20.913,20.913S147.741,298.999,147.741,287.468z"/>
<path d="M80.304,367.967c0,17.146,13.949,31.095,31.095,31.095s31.095-13.949,31.095-31.095c0-17.146-13.949-31.095-31.095-31.095  S80.304,350.821,80.304,367.967z M127.401,367.967c0,8.823-7.178,16.002-16.002,16.002s-16.002-7.178-16.002-16.002  c0-8.823,7.178-16.002,16.002-16.002S127.401,359.143,127.401,367.967z"/>
<path d="M369.505,378.913c0,17.146,13.949,31.095,31.095,31.095c17.146,0,31.095-13.949,31.095-31.095  c0-17.146-13.949-31.095-31.095-31.095C383.454,347.819,369.505,361.768,369.505,378.913z M400.6,362.911  c8.824,0,16.002,7.178,16.002,16.002c0,8.823-7.178,16.002-16.002,16.002c-8.823,0-16.002-7.178-16.002-16.002  C384.598,370.09,391.777,362.911,400.6,362.911z"/>
<g>
</g>
<g>
</g>
<g>
</g>
<g>
</g>
<g>
</g>
<g>
</g>
<g>
</g>
<g>
</g>
<g>
</g>
<g>
</g>
<g>
</g>
<g>
</g>
<g>
</g>
<g>
</g>
<g>
</g>
</svg>
